<mxfile host="Electron" agent="Mozilla/5.0 (Macintosh; Intel Mac OS X 10_15_7) AppleWebKit/537.36 (KHTML, like Gecko) draw.io/24.7.5 Chrome/126.0.6478.183 Electron/31.3.0 Safari/537.36" version="24.7.5">
  <diagram name="Страница — 1" id="b2WpqhV9kkdu6wWa7lqJ">
    <mxGraphModel dx="1114" dy="894" grid="1" gridSize="10" guides="1" tooltips="1" connect="1" arrows="1" fold="1" page="1" pageScale="1" pageWidth="827" pageHeight="1169" math="0" shadow="0">
      <root>
        <mxCell id="0" />
        <mxCell id="1" parent="0" />
        <mxCell id="hLYRQCUOL1AJVg2Gl2W5-1" value="" style="rounded=1;whiteSpace=wrap;html=1;fillColor=#DAE8FC;strokeColor=#6C8EBF;" parent="1" vertex="1">
          <mxGeometry x="150" y="230" width="470" height="60" as="geometry" />
        </mxCell>
        <mxCell id="hLYRQCUOL1AJVg2Gl2W5-4" value="" style="rounded=1;whiteSpace=wrap;html=1;fillColor=#d5e8d4;strokeColor=#82b366;" parent="1" vertex="1">
          <mxGeometry x="160" y="240" width="40" height="40" as="geometry" />
        </mxCell>
        <mxCell id="hLYRQCUOL1AJVg2Gl2W5-5" value="" style="rounded=1;whiteSpace=wrap;html=1;fillColor=#d5e8d4;strokeColor=#82b366;" parent="1" vertex="1">
          <mxGeometry x="218" y="240" width="40" height="40" as="geometry" />
        </mxCell>
        <mxCell id="hLYRQCUOL1AJVg2Gl2W5-6" value="" style="rounded=1;whiteSpace=wrap;html=1;fillColor=#f8cecc;strokeColor=#b85450;" parent="1" vertex="1">
          <mxGeometry x="277" y="240" width="40" height="40" as="geometry" />
        </mxCell>
        <mxCell id="hLYRQCUOL1AJVg2Gl2W5-7" value="" style="rounded=1;whiteSpace=wrap;html=1;fillColor=#f8cecc;strokeColor=#b85450;" parent="1" vertex="1">
          <mxGeometry x="335" y="240" width="40" height="40" as="geometry" />
        </mxCell>
        <mxCell id="hLYRQCUOL1AJVg2Gl2W5-8" value="" style="rounded=1;whiteSpace=wrap;html=1;fillColor=#d5e8d4;strokeColor=#82b366;" parent="1" vertex="1">
          <mxGeometry x="393" y="240" width="40" height="40" as="geometry" />
        </mxCell>
        <mxCell id="hLYRQCUOL1AJVg2Gl2W5-9" value="" style="rounded=1;whiteSpace=wrap;html=1;fillColor=#f8cecc;strokeColor=#b85450;" parent="1" vertex="1">
          <mxGeometry x="452" y="240" width="40" height="40" as="geometry" />
        </mxCell>
        <mxCell id="hLYRQCUOL1AJVg2Gl2W5-10" value="" style="rounded=1;whiteSpace=wrap;html=1;fillColor=#f8cecc;strokeColor=#b85450;" parent="1" vertex="1">
          <mxGeometry x="510" y="240" width="40" height="40" as="geometry" />
        </mxCell>
        <mxCell id="hLYRQCUOL1AJVg2Gl2W5-11" value="" style="rounded=1;whiteSpace=wrap;html=1;fillColor=#d5e8d4;strokeColor=#82b366;" parent="1" vertex="1">
          <mxGeometry x="570" y="240" width="40" height="40" as="geometry" />
        </mxCell>
        <mxCell id="hLYRQCUOL1AJVg2Gl2W5-12" value="&lt;font style=&quot;font-size: 10px;&quot;&gt;Live objects&lt;/font&gt;" style="rounded=1;whiteSpace=wrap;html=1;fillColor=#d5e8d4;strokeColor=#82b366;fontColor=#000000;" parent="1" vertex="1">
          <mxGeometry x="650" y="240" width="40" height="40" as="geometry" />
        </mxCell>
        <mxCell id="hLYRQCUOL1AJVg2Gl2W5-13" value="&lt;font style=&quot;font-size: 10px;&quot;&gt;Unused&lt;/font&gt;" style="rounded=1;whiteSpace=wrap;html=1;fillColor=#f8cecc;strokeColor=#b85450;fontColor=#000000;" parent="1" vertex="1">
          <mxGeometry x="650" y="290" width="40" height="40" as="geometry" />
        </mxCell>
        <mxCell id="hLYRQCUOL1AJVg2Gl2W5-23" value="" style="rounded=1;whiteSpace=wrap;html=1;fillColor=#dae8fc;strokeColor=#6c8ebf;" parent="1" vertex="1">
          <mxGeometry x="150" y="310" width="470" height="60" as="geometry" />
        </mxCell>
        <mxCell id="hLYRQCUOL1AJVg2Gl2W5-24" value="" style="rounded=1;whiteSpace=wrap;html=1;fillColor=#d5e8d4;strokeColor=#82b366;" parent="1" vertex="1">
          <mxGeometry x="160" y="320" width="40" height="40" as="geometry" />
        </mxCell>
        <mxCell id="hLYRQCUOL1AJVg2Gl2W5-25" value="" style="rounded=1;whiteSpace=wrap;html=1;fillColor=#d5e8d4;strokeColor=#82b366;" parent="1" vertex="1">
          <mxGeometry x="218" y="320" width="40" height="40" as="geometry" />
        </mxCell>
        <mxCell id="hLYRQCUOL1AJVg2Gl2W5-28" value="" style="rounded=1;whiteSpace=wrap;html=1;fillColor=#d5e8d4;strokeColor=#82b366;" parent="1" vertex="1">
          <mxGeometry x="393" y="320" width="40" height="40" as="geometry" />
        </mxCell>
        <mxCell id="hLYRQCUOL1AJVg2Gl2W5-31" value="" style="rounded=1;whiteSpace=wrap;html=1;fillColor=#d5e8d4;strokeColor=#82b366;" parent="1" vertex="1">
          <mxGeometry x="570" y="320" width="40" height="40" as="geometry" />
        </mxCell>
        <mxCell id="hLYRQCUOL1AJVg2Gl2W5-32" value="" style="rounded=1;whiteSpace=wrap;html=1;fillColor=#dae8fc;strokeColor=#6c8ebf;" parent="1" vertex="1">
          <mxGeometry x="150" y="390" width="470" height="60" as="geometry" />
        </mxCell>
        <mxCell id="hLYRQCUOL1AJVg2Gl2W5-33" value="" style="rounded=1;whiteSpace=wrap;html=1;fillColor=#d5e8d4;strokeColor=#82b366;" parent="1" vertex="1">
          <mxGeometry x="160" y="400" width="40" height="40" as="geometry" />
        </mxCell>
        <mxCell id="hLYRQCUOL1AJVg2Gl2W5-34" value="" style="rounded=1;whiteSpace=wrap;html=1;fillColor=#d5e8d4;strokeColor=#82b366;" parent="1" vertex="1">
          <mxGeometry x="218" y="400" width="40" height="40" as="geometry" />
        </mxCell>
        <mxCell id="hLYRQCUOL1AJVg2Gl2W5-35" value="" style="rounded=1;whiteSpace=wrap;html=1;fillColor=#d5e8d4;strokeColor=#82b366;" parent="1" vertex="1">
          <mxGeometry x="277" y="400" width="40" height="40" as="geometry" />
        </mxCell>
        <mxCell id="hLYRQCUOL1AJVg2Gl2W5-36" value="" style="rounded=1;whiteSpace=wrap;html=1;fillColor=#d5e8d4;strokeColor=#82b366;" parent="1" vertex="1">
          <mxGeometry x="335" y="400" width="40" height="40" as="geometry" />
        </mxCell>
        <mxCell id="hLYRQCUOL1AJVg2Gl2W5-41" value="&lt;b&gt;&lt;font color=&quot;#6c8ebf&quot; style=&quot;font-size: 20px;&quot;&gt;Mark&lt;/font&gt;&lt;/b&gt;" style="text;html=1;align=center;verticalAlign=middle;whiteSpace=wrap;rounded=0;" parent="1" vertex="1">
          <mxGeometry x="50" y="247.5" width="90" height="30" as="geometry" />
        </mxCell>
        <mxCell id="hLYRQCUOL1AJVg2Gl2W5-42" value="&lt;b&gt;&lt;font color=&quot;#6c8ebf&quot; style=&quot;font-size: 20px;&quot;&gt;Sweep&lt;/font&gt;&lt;/b&gt;" style="text;html=1;align=center;verticalAlign=middle;whiteSpace=wrap;rounded=0;" parent="1" vertex="1">
          <mxGeometry x="50" y="322.5" width="90" height="30" as="geometry" />
        </mxCell>
        <mxCell id="hLYRQCUOL1AJVg2Gl2W5-43" value="&lt;b&gt;&lt;font color=&quot;#6c8ebf&quot; style=&quot;font-size: 20px;&quot;&gt;Compact&lt;/font&gt;&lt;/b&gt;" style="text;html=1;align=center;verticalAlign=middle;whiteSpace=wrap;rounded=0;" parent="1" vertex="1">
          <mxGeometry x="50" y="402.5" width="90" height="30" as="geometry" />
        </mxCell>
      </root>
    </mxGraphModel>
  </diagram>
</mxfile>
